# xmcd
# 
# Track frame offsets:
#     150
#     16567
#     31016
#     46235
#     61334
#     76803
#     90721
#     107755
#     122697
#     139773
#     154169
#     166919
#     179440
#     198973
#     214585
#     229475
# 
# Disc length: 3271
# 
# Revision: 5
# Processed by: cddbd v1.5.2PL0 Copyright (c) Steve Scherf et al.
# Submitted via: Hanso Converter v1.2.0
# 
DISCID=c50cc510
DTITLE=Jorge e Mateus - O Mundo eh Tao Pequeno
DYEAR=2009
DGENRE=Sertanejo
TTITLE0=Vou Fazer Pirraca
TTITLE1=Espelho
TTITLE2=Um Dia Te Levo Comigo
TTITLE3=Pra Nunca Dizer Adeus
TTITLE4=Voa Beija Flor
TTITLE5=Misterios
TTITLE6=Amor Covarde
TTITLE7=Aonde Haja Sol
TTITLE8=Saudade
TTITLE9=O Mundo eh Tao Pequeno
TTITLE10=Se Eu Pedir Voce Volta
TTITLE11=Soh Eu Sei
TTITLE12=Nao Sai da Minha Vida
TTITLE13=Mania de Te Amar
TTITLE14=Soh Falta Você
TTITLE15=Violeiro Feliz de Goias
EXTD=
EXTT0=
EXTT1=
EXTT2=
EXTT3=
EXTT4=
EXTT5=
EXTT6=
EXTT7=
EXTT8=
EXTT9=
EXTT10=
EXTT11=
EXTT12=
EXTT13=
EXTT14=
EXTT15=
PLAYORDER=
